<svg width="50" height="59" viewBox="0 0 50 59" fill="none" xmlns="http://www.w3.org/2000/svg">
<g clip-path="url(#clip0_342_615)">
<path d="M28.0059 34.9161H29.0673V45H4.12293V43.9385H6.77659V16.3405H4.12293V15.279H17.922V16.3405H14.7376V43.9385H20.0449C21.2479 43.9385 22.2386 43.8501 23.017 43.6732C23.8308 43.4963 24.6622 43.1247 25.5114 42.5586C27.1744 41.4618 28.0059 38.9143 28.0059 34.9161Z" fill="black"/>
<path d="M21.3272 25.0839H20.2657V15H45.2101V16.0615H42.5564V43.6595H45.2101V44.721H31.4111V43.6595H34.5954V16.0615H29.2881C28.0851 16.0615 27.0944 16.1499 26.316 16.3268C25.5022 16.5037 24.6708 16.8753 23.8216 17.4414C22.1586 18.5382 21.3272 21.0857 21.3272 25.0839Z" fill="black"/>
</g>
<defs>
<clipPath id="clip0_342_615">
<rect width="50" height="59" fill="white"/>
</clipPath>
</defs>
</svg>
