<svg width="59" height="88" viewBox="0 0 59 88" fill="none" xmlns="http://www.w3.org/2000/svg">
<path d="M33.6546 49.9502H35.0283V63H2.74732V61.6263H6.18146V25.9112H2.74732V24.5376H20.6049V25.9112H16.4839V61.6263H23.3522C24.909 61.6263 26.1911 61.5119 27.1984 61.2829C28.2516 61.054 29.3276 60.5732 30.4265 59.8406C32.5786 58.4211 33.6546 55.1244 33.6546 49.9502Z" fill="white"/>
<path d="M25.0124 38.0498H23.6387V25H55.9197V26.3737H52.4855V62.0888H55.9197V63.4624H38.0621V62.0888H42.1831V26.3737H35.3148C33.758 26.3737 32.4759 26.4881 31.4686 26.7171C30.4154 26.946 29.3394 27.4268 28.2405 28.1594C26.0884 29.5789 25.0124 32.8756 25.0124 38.0498Z" fill="white"/>
</svg>
